<svg xmlns="http://www.w3.org/2000/svg" version="1.1" xmlns:xlink="http://www.w3.org/1999/xlink" xmlns:svgjs="http://svgjs.dev/svgjs" width="1500" height="1500" viewBox="0 0 1500 1500"><rect width="1500" height="1500" fill="#010536"></rect><g transform="matrix(0.6666666666666666,0,0,0.6666666666666666,250.00007343750008,187.66666666666674)"><svg viewBox="0 0 320 360" data-background-color="#010536" preserveAspectRatio="xMidYMid meet" height="1687" width="1500" xmlns="http://www.w3.org/2000/svg" xmlns:xlink="http://www.w3.org/1999/xlink"><g id="tight-bounds" transform="matrix(1,0,0,1,0.000023499999997511622,0)"><svg viewBox="0 0 320 360" height="360" width="320"><g><svg></svg></g><g><svg viewBox="0 0 320 360" height="360" width="320"><g><path transform="translate(-74.99272,-51.79039) scale(4.65793,4.65793)" d="M20.6 59.9l0.8 1-0.4-1.3c-0.1-0.6-0.8 0.1-0.4 0.3M21.5 59.3c0.3 0.5 0.6 1 0.6 1.5 0 0.7 0.6 1 1.1 1.2-0.7-0.8-1.1-3-1.7-2.7M59.9 16.9c1.7 0 3.3-0.2 5.1 0.2 4.4 1.1 8.1 3.3 10.6 6.4l7 11.2c0.3 2.8 0.9 5.9 0.8 9.3 0.7 0 0.6-1 1.4-1.2-0.8 2-1.2 4.5-1.4 7.4-0.5-1.6 0-4 0.1-5.3-0.7 1.1-1.1 0.3-1.1-0.2 0.1-0.8-0.3-0.7-0.6-1-1.1-1-1.8-2.1-2.6-3.8 0.5-1.3 0.6-3.2-1-4.2-0.5-0.3-1.1-0.8-1.4-1.6-0.4-1.1-1.1-2.4-0.9-4.1 0.1-0.5-1.5 1.1-2.4 0.4-3.9-2.7-7.8-5.8-12.5-8.4-2.5 0-4.3-0.9-5.2-2-0.8-1-0.2-2.3 1-2.4 0.7 0 1.5-0.2 2.1 0.2 0.1-0.4 0.5-0.9 1-0.9M50 14.6l0.2 0.1c1 0.2 1.5 1.6 2.6 1.1 0 0.7 0.1 1.4-0.1 1.9-0.3 0.8-1.2 0.8-1.9 0.8-6.7-0.4-10.6 2.4-14.7 4.8-1.1 0.7-2.3 1.2-3.2 2.1-4.3 4-9 7.7-10.1 15.1l-0.9 8.2c-0.1 0.9-1.1 1.8-0.9 2.9l0.7 4.9c-0.7-0.7-1.1 0.2-0.9 0.6 0.1 0.3 0.5 1.3 1.1 0.4 0.8 1.5 1.6 4.4 2.7 5.7 3.4 4 7.8 7.6 11.4 11.2 0.9-0.2 1.6-0.2 1.8-0.8 0.3 0.6-0.3 1.2-0.8 1.3 1.6 1 3.4 1.9 5.8 2.1 3.1 0.2 6 0.7 8.7 1.4 1.4-0.4 2.8-0.6 4.3-0.7 0.5 0 0.8-0.8 1.4-1l0.1-1c0.6 0.9 0.5-0.3 0.1-0.9 0.7 0.6 0.9 1.1 1.2 1.5 0-0.3 0.8-1.4 0.8-0.1l0.2-1.3c0.3-0.2 0.4 1.1 0.7 0.2 0.3-0.9 0.9-0.2 1.5-0.5-0.2 0.4-0.1 1.2 0.6 0.7l0.8-0.7c0.5 1.2 1.3 0.7 1.7 0.5 4.4-2.8 8.8-6.1 13-9.4l-0.1 1.3 0.5-1.6c0.5 0.5 0.9 0.1 1.1-0.2 0.6-1 1.4-2 2.7-2.9-1.6 4.3-3.5 7.7-5.9 10.5l-1 1.2c0 0.7-0.2 1.6-1 1.7-0.4 0.1-1.2-0.2-1.8 0.4-0.3 0.4 0.7 1.2-0.1 0.6-0.7-0.5-1.4 0-2.2 0.2-0.6 0.2 0.4 0.8 0.6 1.2 0.2 0.4 0.4 0.8 0.3 1.3l-1.1-1.2c-1.3 0.7-2.1 2-3.2 3-0.5 0.4-0.3 1.1-0.3 1.7-0.7 0-1.5-0.2-1.9 0.2-0.3 0.4-0.2 1-0.2 1.6-1-0.1-1.1-1.6-2-1.3-0.9 0.2-1.9 0.3-2.7 0.8 0.6 1.2-1 0.5-0.8 0.7-1.5-0.9-2.8-1.6-4.4-1-3.4-1.1-7.6-0.6-10.7-0.2 0-0.5 0.1-1-0.1-1.1-0.2 0.5-0.8 0.3-0.7 0.3-1.9-1.3-3.8-2.1-5.8-3.2-1.8 0.2-3.5-0.7-4-1.2-1.4-1.3-3-0.6-4.3-0.9-2.8-0.7-3.8-3.6-4.1-5.6-0.2-1-1-1.4-1.3-1.3-1.3-4.2-3.3-8-4.9-11.9-0.4-1-0.3-2-0.3-3.1 0.5 0.2 1 0.1 0.9-0.6-0.5-3.3-1.7-5.8-3-8.2 0.7-3.4 0.8-7.4 2.4-10.4 1.4-2.7 4-4.1 5.8-6.4 0.6-0.8 0.6-1.9 1.2-2.6 2-2 4-4.1 6.2-5.9 1-0.8 2.2 0 3.7-0.3 0.5-1.8 2.5-3.4 4.4-2.9 0.8 0.2 2.4-1.9 2.9-2.1 0.8-0.3 0.4 0.8 0.4 1.5 1.9-1.5 4.5-2.3 6.9-3.2" fill="#fbfbf8" fill-rule="nonzero" stroke="none" stroke-width="1" stroke-linecap="butt" stroke-linejoin="miter" stroke-miterlimit="10" stroke-dasharray="" stroke-dashoffset="0" font-family="none" font-weight="none" font-size="none" text-anchor="none" style="mix-blend-mode: normal" data-fill-palette-color="tertiary"></path></g><g transform="matrix(1,0,0,1,64,106.24867159944836)"><svg viewBox="0 0 192 147.50265680110329" height="147.50265680110329" width="192"><g><svg viewBox="0 0 192 147.50265680110329" height="147.50265680110329" width="192"><g><svg viewBox="0 0 192 147.50265680110329" height="147.50265680110329" width="192"><g transform="matrix(1,0,0,1,0,61.20978849038871)"><svg viewBox="0 0 192 86.29286831071457" height="86.29286831071457" width="192"><g id="textblocktransform"><svg viewBox="0 0 192 86.29286831071457" height="86.29286831071457" width="192" id="textblock"><g><svg viewBox="0 0 192 48.92096729264672" height="48.92096729264672" width="192"><g transform="matrix(1,0,0,1,0,0)"><svg width="192" viewBox="3.04875 -41.26 202.15263461253997 51.51" height="48.92096729264672" data-palette-color="#fbfbf8"><path d="M7.5 0L7.5 0Q5.25 0 4.7-0.27 4.15-0.54 4.1-1.66L4.1-1.66 3.05-39.23Q3.03-40.09 3.33-40.52 3.64-40.94 4.6-41.1 5.57-41.26 7.5-41.26L7.5-41.26Q9.42-41.26 10.39-41.1 11.35-40.94 11.66-40.52 11.96-40.09 11.94-39.23L11.94-39.23 11.43-21.46 18.6-21.46 18.12-39.23Q18.09-40.09 18.4-40.52 18.7-40.94 19.67-41.1 20.63-41.26 22.56-41.26L22.56-41.26Q24.49-41.26 25.45-41.1 26.42-40.94 26.72-40.52 27.03-40.09 27-39.23L27-39.23 25.93-1.66Q25.9-0.54 25.35-0.27 24.8 0 22.56 0L22.56 0Q20.31 0 19.76-0.27 19.21-0.54 19.17-1.66L19.17-1.66 18.75-16.82 11.3-16.82 10.86-1.66Q10.84-0.54 10.29-0.27 9.74 0 7.5 0ZM39.67 0.29L39.67 0.29Q36.25 0.29 34.52-1.48 32.79-3.25 32.74-5.79L32.74-5.79 32.71-7.1Q32.69-8.94 33.71-10.18 34.74-11.43 36.31-12.26 37.89-13.09 39.48-13.6L39.48-13.6Q41.04-14.11 42.76-14.48 44.48-14.84 46.09-15.11L46.09-15.11 45.87-23.19Q45.8-25.83 43.23-25.83L43.23-25.83Q41.99-25.83 41.2-25.34 40.4-24.85 40.35-23.22L40.35-23.22 40.18-17.68Q40.16-16.77 39.52-16.53 38.89-16.28 36.5-16.28L36.5-16.28Q34.27-16.28 33.68-16.53 33.08-16.77 33.03-17.68L33.03-17.68 32.83-22.88Q32.76-24.83 33.81-26.14 34.86-27.44 36.52-28.21 38.18-28.98 40.01-29.31 41.84-29.64 43.31-29.64L43.31-29.64Q46.12-29.64 48.48-28.81 50.85-27.98 52.27-26.4 53.68-24.83 53.61-22.58L53.61-22.58 52.85-1.39Q52.83-0.49 52.27-0.24 51.71 0 49.66 0L49.66 0Q47.78 0 47.28-0.24 46.77-0.49 46.73-1.39L46.73-1.39 46.7-2.25Q45.38-1.27 43.6-0.49 41.82 0.29 39.67 0.29ZM39.4-7.47L39.4-6.52Q39.4-5.03 40.21-4.39 41.01-3.76 42.16-3.76L42.16-3.76Q43.58-3.76 44.6-4.24 45.63-4.71 46.36-5.32L46.36-5.32 46.19-11.6Q43.65-11.13 42.09-10.45L42.09-10.45Q40.89-9.91 40.15-9.23 39.4-8.54 39.4-7.47L39.4-7.47ZM69.75 0.29L69.75 0.29Q67.23 0.29 64.99-0.35 62.74-1 61.31-2.54 59.88-4.08 59.79-6.74L59.79-6.74 59.22-22.22Q59.13-24.83 60.63-26.46 62.13-28.1 64.57-28.87 67.01-29.64 69.72-29.64L69.72-29.64Q72.43-29.64 74.87-28.87 77.31-28.1 78.82-26.46 80.32-24.83 80.22-22.22L80.22-22.22 79.66-6.76Q79.56-4.1 78.13-2.56 76.7-1.03 74.48-0.37 72.26 0.29 69.75 0.29ZM69.72-3.22L69.72-3.22Q71.43-3.22 72.22-3.97 73.02-4.71 72.97-6.57L72.97-6.57 72.48-22.63Q72.43-24.71 71.69-25.27 70.94-25.83 69.72-25.83L69.72-25.83Q68.53-25.83 67.77-25.27 67.01-24.71 66.96-22.63L66.96-22.63 66.47-6.54Q66.43-4.69 67.22-3.96 68.01-3.22 69.72-3.22ZM112.39 0L102.58 0Q100.33 0 99.78-0.27 99.23-0.54 99.18-1.66L99.18-1.66 98.13-39.23Q98.11-40.09 98.42-40.52 98.72-40.94 99.68-41.1 100.65-41.26 102.58-41.26L102.58-41.26Q104.51-41.26 105.47-41.1 106.44-40.94 106.74-40.52 107.05-40.09 107.02-39.23L107.02-39.23 106.04-4.54 112.39-4.54Q113.66-4.54 113.89-4.08 114.13-3.61 114.13-2.27L114.13-2.27Q114.13-0.95 113.89-0.48 113.66 0 112.39 0L112.39 0ZM122.01 0L122.01 0Q119.96 0 119.41-0.24 118.86-0.49 118.84-1.39L118.84-1.39 118.05-27.56Q118.03-28.61 118.69-28.98 119.35-29.35 122.01-29.35L122.01-29.35Q124.67-29.35 125.34-28.98 126.01-28.61 125.96-27.56L125.96-27.56 125.21-1.39Q125.18-0.49 124.62-0.24 124.06 0 122.01 0ZM122.01-33.2L122.01-33.2Q119.64-33.2 119.02-33.45 118.4-33.69 118.35-34.59L118.35-34.59 118.05-39.36Q117.98-40.41 118.66-40.77 119.35-41.14 122.01-41.14L122.01-41.14Q124.67-41.14 125.34-40.77 126.01-40.41 125.96-39.36L125.96-39.36 125.7-34.59Q125.65-33.69 125.02-33.45 124.4-33.2 122.01-33.2ZM138.53 0.29L138.53 0.29Q135.12 0.29 133.38-1.48 131.65-3.25 131.6-5.79L131.6-5.79 131.58-7.1Q131.55-8.94 132.58-10.18 133.6-11.43 135.18-12.26 136.75-13.09 138.34-13.6L138.34-13.6Q139.9-14.11 141.62-14.48 143.34-14.84 144.96-15.11L144.96-15.11 144.74-23.19Q144.66-25.83 142.1-25.83L142.1-25.83Q140.85-25.83 140.06-25.34 139.27-24.85 139.22-23.22L139.22-23.22 139.05-17.68Q139.02-16.77 138.39-16.53 137.75-16.28 135.36-16.28L135.36-16.28Q133.14-16.28 132.54-16.53 131.94-16.77 131.89-17.68L131.89-17.68 131.7-22.88Q131.63-24.83 132.68-26.14 133.73-27.44 135.39-28.21 137.05-28.98 138.88-29.31 140.71-29.64 142.17-29.64L142.17-29.64Q144.98-29.64 147.35-28.81 149.72-27.98 151.13-26.4 152.55-24.83 152.48-22.58L152.48-22.58 151.72-1.39Q151.69-0.49 151.13-0.24 150.57 0 148.52 0L148.52 0Q146.64 0 146.14-0.24 145.64-0.49 145.59-1.39L145.59-1.39 145.57-2.25Q144.25-1.27 142.47-0.49 140.68 0.29 138.53 0.29ZM138.27-7.47L138.27-6.52Q138.27-5.03 139.07-4.39 139.88-3.76 141.03-3.76L141.03-3.76Q142.44-3.76 143.47-4.24 144.49-4.71 145.22-5.32L145.22-5.32 145.05-11.6Q142.51-11.13 140.95-10.45L140.95-10.45Q139.76-9.91 139.01-9.23 138.27-8.54 138.27-7.47L138.27-7.47ZM162.34 0L162.34 0Q160.29 0 159.74-0.24 159.19-0.49 159.16-1.39L159.16-1.39 158.38-27.56Q158.36-28.61 158.98-28.98 159.6-29.35 162.09-29.35L162.09-29.35Q164.58-29.35 165.2-28.98 165.83-28.61 165.8-27.56L165.8-27.56 165.78-26.07Q167.15-27.64 168.71-28.64 170.27-29.64 172.47-29.64L172.47-29.64Q175.45-29.64 177.44-27.54 179.43-25.44 179.3-21.73L179.3-21.73 178.72-1.39Q178.69-0.49 178.13-0.24 177.57 0 175.52 0L175.52 0Q173.47 0 172.92-0.24 172.37-0.49 172.35-1.39L172.35-1.39 171.78-21.02Q171.74-22.95 170.97-23.61 170.2-24.27 169-24.27L169-24.27Q168.1-24.27 167.38-23.75 166.66-23.24 166.14-22.53L166.14-22.53 165.53-1.39Q165.51-0.49 164.95-0.24 164.39 0 162.34 0ZM191.92 0.29L191.92 0.29Q188.77 0.29 186.93-1.55 185.09-3.39 184.94-7.81L184.94-7.81 184.5-21.56Q184.4-25.1 186.48-27.37 188.55-29.64 191.95-29.64L191.95-29.64Q194-29.64 195.46-28.71 196.93-27.78 197.76-26.9L197.76-26.9 197.73-27.56Q197.71-28.61 198.36-28.98 199-29.35 201.49-29.35L201.49-29.35Q203.98-29.35 204.61-28.98 205.23-28.61 205.2-27.56L205.2-27.56 204.57 3.2Q204.5 7.18 201.79 8.72 199.08 10.25 194.44 10.25L194.44 10.25Q192.73 10.25 191.73 10.16 190.73 10.06 190.09 9.96L190.09 9.96Q189.51 9.84 189.35 9.46 189.19 9.08 189.19 7.91L189.19 7.91Q189.19 6.69 189.36 6.18 189.53 5.66 190.09 5.71L190.09 5.71Q190.68 5.74 191.59 5.86 192.51 5.98 194.12 5.98L194.12 5.98Q196.24 5.98 197.14 5.24 198.03 4.49 197.98 2.64L197.98 2.64 197.88-1.78Q196.83-0.98 195.35-0.34 193.88 0.29 191.92 0.29ZM192.05-21.56L191.68-7.81Q191.63-6.03 192.52-5.05 193.41-4.08 194.98-4.08L194.98-4.08Q195.83-4.08 196.55-4.35 197.27-4.61 197.81-5L197.81-5 197.34-23.71Q196.81-24.07 196.13-24.33 195.46-24.58 194.8-24.58L194.8-24.58Q193.73-24.58 192.91-23.91 192.09-23.24 192.05-21.56L192.05-21.56Z" opacity="1" transform="matrix(1,0,0,1,0,0)" fill="#fbfbf8" class="wordmark-text-0" data-fill-palette-color="primary" id="text-0"></path></svg></g></svg></g><g transform="matrix(1,0,0,1,0,56.059710523858904)"><svg viewBox="0 0 192 30.233157786855674" height="30.233157786855674" width="192"><g transform="matrix(1,0,0,1,0,0)"><svg width="192" viewBox="4 -36.01 228.7 36.01" height="30.233157786855674" data-palette-color="#fbfbf8"><path d="M4-36.01L8.79-36.01 8.79 0 4 0 4-36.01ZM54.17-21.19L54.17 0 49.36 0 49.36-21.19 35.96-21.19 35.96 0 31.17 0 31.17-36.01 35.96-36.01 35.96-21.41Q36.01-22.36 36.4-23.21 36.79-24.05 37.44-24.67 38.08-25.29 38.94-25.65 39.79-26 40.77-26L40.77-26 49.36-26Q50.36-26 51.24-25.62 52.12-25.24 52.77-24.6 53.41-23.95 53.79-23.07 54.17-22.19 54.17-21.19L54.17-21.19ZM76.04-21.19L76.04-26 97.55-26 97.55-24.71 83.71-4.81 97.55-4.81 97.55 0 75.55 0 75.55-1.29 89.4-21.19 76.04-21.19ZM118.93-4.81L118.93-21.19Q118.93-22.19 119.31-23.07 119.69-23.95 120.34-24.6 120.98-25.24 121.86-25.62 122.74-26 123.72-26L123.72-26 137.12-26 137.12-36.01 141.93-36.01 141.93 0 137.12 0 137.12-4.39Q137.05-3.49 136.63-2.69 136.22-1.88 135.57-1.28 134.92-0.68 134.09-0.34 133.26 0 132.34 0L132.34 0 123.72 0Q122.74 0 121.86-0.38 120.98-0.76 120.34-1.4 119.69-2.05 119.31-2.93 118.93-3.81 118.93-4.81L118.93-4.81ZM123.72-21.19L123.72-4.81 137.12-4.81 137.12-21.19 123.72-21.19ZM187.31-21.19L187.31 0 182.5 0 182.5-21.19 169.1-21.19 169.1 0 164.32 0 164.32-26 169.1-26 169.1-21.41Q169.15-22.36 169.54-23.21 169.93-24.05 170.58-24.67 171.22-25.29 172.08-25.65 172.93-26 173.91-26L173.91-26 182.5-26Q183.5-26 184.38-25.62 185.26-25.24 185.91-24.6 186.56-23.95 186.94-23.07 187.31-22.19 187.31-21.19L187.31-21.19ZM232.7-21.19L232.7-4.81Q232.7-3.81 232.32-2.93 231.94-2.05 231.29-1.4 230.64-0.76 229.77-0.38 228.89 0 227.89 0L227.89 0 214.48 0Q213.51 0 212.63-0.38 211.75-0.76 211.1-1.4 210.45-2.05 210.08-2.93 209.7-3.81 209.7-4.81L209.7-4.81 209.7-36.01 214.48-36.01 214.48-21.41Q214.53-22.36 214.92-23.21 215.31-24.05 215.96-24.67 216.61-25.29 217.46-25.65 218.32-26 219.29-26L219.29-26 227.89-26Q228.89-26 229.77-25.62 230.64-25.24 231.29-24.6 231.94-23.95 232.32-23.07 232.7-22.19 232.7-21.19L232.7-21.19ZM227.89-21.19L214.48-21.19 214.48-4.81 227.89-4.81 227.89-21.19Z" opacity="1" transform="matrix(1,0,0,1,0,0)" fill="#fbfbf8" class="slogan-text-1" data-fill-palette-color="secondary" id="text-1"></path></svg></g></svg></g></svg></g></svg></g><g transform="matrix(1,0,0,1,36.672,0)"><svg viewBox="0 0 118.656 54.07104525917653" height="54.07104525917653" width="118.656"><g><svg xmlns="http://www.w3.org/2000/svg" xmlns:xlink="http://www.w3.org/1999/xlink" version="1.1" x="0" y="0" viewBox="5 29.49387475885969 90 41.012625348283166" enable-background="new 0 0 100 100" xml:space="preserve" height="54.07104525917653" width="118.656" class="icon-icon-0" data-fill-palette-color="accent" id="icon-0"><g fill="#ffff00" data-fill-palette-color="accent"><path d="M23.943 30.807L5 50.001l18.942 19.192c1.728 1.751 4.53 1.751 6.258 0.002 1.729-1.75 1.73-4.587 0.002-6.338L18.193 50.695l-3.624 2.289 15.634-15.841c0.864-0.875 1.295-2.021 1.295-3.168 0-1.147-0.433-2.295-1.297-3.17C28.473 29.056 25.671 29.057 23.943 30.807z" fill="#ffff00" data-fill-palette-color="accent"></path><path d="M76.057 30.808L95 50.001 76.058 69.193c-1.728 1.751-4.53 1.751-6.258 0.002-1.729-1.75-1.73-4.587-0.002-6.338l12.009-12.161 3.624 2.289L69.796 37.144c-0.864-0.875-1.295-2.021-1.295-3.168 0-1.147 0.433-2.295 1.297-3.17C71.527 29.056 74.329 29.057 76.057 30.808z" fill="#ffff00" data-fill-palette-color="accent"></path><path d="M60.899 32.352c-0.419-1.068-1.241-1.978-2.366-2.476-2.249-0.997-4.857 0.028-5.825 2.288l-13.82 32.062c-0.484 1.13-0.467 2.355-0.048 3.422 0.419 1.068 1.241 1.978 2.366 2.476 2.249 0.997 4.857-0.028 5.825-2.288l13.82-32.062C61.335 34.644 61.318 33.419 60.899 32.352z" fill="#ffff00" data-fill-palette-color="accent"></path></g></svg></g></svg></g><g></g></svg></g></svg></g></svg></g></svg></g><defs></defs></svg><rect width="320" height="360" fill="none" stroke="none" visibility="hidden"></rect></g></svg></g></svg>